<?xml version="1.0" encoding="utf-8"?>
<!-- Generator: Adobe Illustrator 25.0.1, SVG Export Plug-In . SVG Version: 6.00 Build 0)  -->
<svg version="1.1" id="Layer_1" xmlns="http://www.w3.org/2000/svg" xmlns:xlink="http://www.w3.org/1999/xlink" x="0px" y="0px"
	 viewBox="0 0 21 21" style="enable-background:new 0 0 21 21;" xml:space="preserve">
<style type="text/css">
	.st0{fill-rule:evenodd;clip-rule:evenodd;fill:#FFFFFF;}
</style>
<path id="Path_21" class="st0" d="M15.47,8.43h1.52v1.42h1.41v1.52h-1.41v1.41h-1.52v-1.41h-1.41V9.85h1.41V8.43L15.47,8.43z
	 M3.34,14.84v-1.1h1.4V8.17H3.24V6.86h3.02v6.88h1.41v1.1L3.34,14.84z M11,10.05c0.22,0,0.42-0.1,0.55-0.29
	c0.15-0.23,0.22-0.49,0.21-0.76c0.01-0.27-0.06-0.54-0.21-0.77C11.43,8.05,11.22,7.94,11,7.94c-0.22-0.01-0.43,0.1-0.55,0.29
	c-0.14,0.23-0.21,0.5-0.2,0.77c-0.01,0.27,0.06,0.54,0.21,0.77C10.58,9.94,10.78,10.05,11,10.05L11,10.05z M10.99,13.81
	c0.26,0,0.51-0.13,0.66-0.35c0.18-0.28,0.27-0.61,0.26-0.94c0.02-0.33-0.07-0.66-0.25-0.94c-0.15-0.23-0.4-0.36-0.67-0.36
	c-0.26,0-0.51,0.13-0.65,0.35c-0.33,0.59-0.33,1.31,0,1.89C10.48,13.68,10.73,13.81,10.99,13.81z M9.78,10.61
	c-0.31-0.17-0.57-0.43-0.75-0.74C8.85,9.55,8.76,9.18,8.77,8.81C8.75,8.23,8.98,7.67,9.4,7.27c0.91-0.82,2.28-0.82,3.19,0
	c0.42,0.4,0.65,0.96,0.63,1.54c0.01,0.36-0.08,0.72-0.25,1.05c-0.18,0.31-0.43,0.57-0.74,0.75c0.37,0.17,0.69,0.45,0.89,0.8
	c0.22,0.38,0.33,0.81,0.32,1.25c0.03,0.64-0.21,1.27-0.67,1.72c-1.02,0.88-2.52,0.88-3.54,0c-0.46-0.46-0.7-1.08-0.67-1.73
	c-0.01-0.44,0.1-0.87,0.31-1.24C9.08,11.05,9.4,10.77,9.78,10.61L9.78,10.61z M10.42,0.05c-5.8,0-10.5,4.7-10.5,10.5
	s4.7,10.5,10.5,10.5s10.5-4.7,10.5-10.5l0,0C20.9,4.75,16.21,0.06,10.42,0.05z M10.42,1.8c-4.83,0-8.75,3.92-8.75,8.75
	s3.92,8.75,8.75,8.75s8.75-3.92,8.75-8.75l0,0C19.16,5.72,15.24,1.81,10.42,1.8z"/>
</svg>
