<?xml version="1.0" encoding="utf-8"?>
<!-- Generator: Adobe Illustrator 25.0.1, SVG Export Plug-In . SVG Version: 6.00 Build 0)  -->
<svg version="1.1" id="Layer_1" xmlns="http://www.w3.org/2000/svg" xmlns:xlink="http://www.w3.org/1999/xlink" x="0px" y="0px"
	 viewBox="0 0 21 21" style="enable-background:new 0 0 21 21;" xml:space="preserve">
<style type="text/css">
	.st0{fill-rule:evenodd;clip-rule:evenodd;fill:#FFFFFF;}
</style>
<path id="Path_18" class="st0" d="M10.42,0.05c5.8,0,10.5,4.7,10.5,10.5s-4.7,10.5-10.5,10.5s-10.5-4.7-10.5-10.5
	C-0.07,4.75,4.62,0.06,10.42,0.05z M9.14,8c1.02,0,1.84,0.83,1.84,1.84c0,0.71-0.4,1.35-1.04,1.66c-0.1,0.3,0.09,0.55,0.61,0.77
	c0.34,0.13,0.6,0.43,0.68,0.79c0.05,0.19,0.29,0.21,0.32,0c0.08-0.96,0.68-1.8,1.57-2.18c0.35-0.13,0.66-0.24,0.62-0.65
	c-1.18-0.41-1.81-1.69-1.4-2.87c0.41-1.18,1.69-1.81,2.87-1.4s1.81,1.69,1.4,2.87c-0.19,0.56-0.6,1.02-1.12,1.29
	c-0.09,0.27,0.04,0.57,0.3,0.69C16.74,11.14,17.4,12,17.47,13v2.1h0.41c2.52-4.12,1.22-9.51-2.9-12.03
	c-4.12-2.52-9.51-1.22-12.03,2.9c-1.88,3.07-1.68,6.99,0.49,9.86l0.21-0.29c-0.04-0.45-0.03-0.9,0.01-1.35
	c0.04-0.43,0.36-0.79,0.79-0.88c0-0.15,0-0.25,0.01-0.35c-0.71-0.33-1.02-1.17-0.69-1.88c0.33-0.71,1.17-1.02,1.88-0.69
	c0.71,0.33,1.02,1.17,0.69,1.88c-0.15,0.33-0.43,0.59-0.76,0.72v0.26C6,13.36,6.33,13.69,6.44,14.1h0.04
	c0.06,0.27,0.38,0.18,0.41-0.1c0.02-0.83,0.54-1.56,1.32-1.84c0.22-0.07,0.25-0.34,0.2-0.63c-0.93-0.4-1.37-1.49-0.96-2.42
	C7.74,8.44,8.4,8,9.14,8L9.14,8z"/>
</svg>
