<?xml version="1.0" encoding="utf-8"?>
<!-- Generator: Adobe Illustrator 25.0.1, SVG Export Plug-In . SVG Version: 6.00 Build 0)  -->
<svg version="1.1" id="Layer_1" xmlns="http://www.w3.org/2000/svg" xmlns:xlink="http://www.w3.org/1999/xlink" x="0px" y="0px"
	 viewBox="0 0 21 21" style="enable-background:new 0 0 21 21;" xml:space="preserve">
<style type="text/css">
	.st0{fill-rule:evenodd;clip-rule:evenodd;fill:#FFFFFF;}
</style>
<path id="Path_22" class="st0" d="M10.5,0c1.25,0,2.49,0.22,3.67,0.66l-3.64,3.39l-3-2.43L7.31,4.8L1.15,6.45l7.02,0.46l0.11-2.29
	l1.25,2.22l3.61-4.61L12.6,6.81l2.72-0.68L13.6,8.34l2.9,4.83l-4.9-1.75l0.11,3.22l-2.07-1.93l-4.79,1.61l3.54-3.83l-7.6-3.95
	C2.4,2.59,6.24,0.01,10.5,0L10.5,0z M15.29,1.16c1.56,0.81,2.89,1.99,3.88,3.43l-5.57,1L15.29,1.16L15.29,1.16z M19.7,5.45
	c1.54,2.79,1.72,6.14,0.49,9.08l-5.34-5.8L19.7,5.45L19.7,5.45z M20.17,14.58c-2.25,5.34-8.4,7.85-13.74,5.6
	c-1.88-0.79-3.48-2.11-4.62-3.8l7.43-2.6l5.01,3.36l-1.75-4.54L20.17,14.58L20.17,14.58z M1.46,15.83
	c-1.39-2.34-1.81-5.14-1.17-7.78l6.09,2.87L1.46,15.83L1.46,15.83z"/>
</svg>
